# xmcd CD database file
#
# Track frame offsets:
#	150
#	19772
#	42445
#	60142
#	86390
#	97922
#	117330
#	139835
#	161157
#	176467
#	200300
#	217225
#	246937
#	266157
#
# Disc length: 3727 seconds
#
# Revision: 0
# Processed by: cddbd v1.5.1PL2 Copyright (c) Steve Scherf et al.
# Submitted via: CDex 1.60beta1-cs1
#
DISCID=c10e8d0e
DTITLE=David Paquette - That Old Feeling
DYEAR=1997
DGENRE=Jazz
TTITLE0=Exactly like you
TTITLE1=That old feeling
TTITLE2=Make a pallet on the floor
TTITLE3=Out in the cold again
TTITLE4=Get it over with
TTITLE5=What can I say dear after I say I'm sorry
TTITLE6=Blues for Roosevelt
TTITLE7=For all we know
TTITLE8=At a Georgia camp meeting
TTITLE9=Home fire
TTITLE10=When you wish upon a star
TTITLE11=I want a little girl
TTITLE12=Breeze
TTITLE13=Song of the Islands
EXTD=YEAR: 1997
EXTT0=
EXTT1=
EXTT2=
EXTT3=
EXTT4=
EXTT5=
EXTT6=
EXTT7=
EXTT8=
EXTT9=
EXTT10=
EXTT11=
EXTT12=
EXTT13=
PLAYORDER=
